<svg width="24" height="24" viewBox="0 0 24 24" fill="none" xmlns="http://www.w3.org/2000/svg">
<path d="M21.3334 9.99996H20.6667V5.99996C20.6667 5.82315 20.5965 5.65358 20.4714 5.52856C20.3464 5.40353 20.1768 5.33329 20 5.33329H4.00003C3.84217 5.33587 3.68852 5.28234 3.56644 5.18223C3.44435 5.08212 3.36176 4.94193 3.33336 4.78663V4.54663C3.36176 4.39132 3.44435 4.25113 3.56644 4.15103C3.68852 4.05092 3.84217 3.99738 4.00003 3.99996H19.72C19.8968 3.99996 20.0664 3.92972 20.1914 3.8047C20.3165 3.67967 20.3867 3.5101 20.3867 3.33329C20.3867 3.15648 20.3165 2.98691 20.1914 2.86189C20.0664 2.73686 19.8968 2.66663 19.72 2.66663H4.00003C3.4696 2.66663 2.96089 2.87734 2.58582 3.25241C2.21074 3.62749 2.00003 4.13619 2.00003 4.66663C1.99535 4.74656 1.99535 4.82669 2.00003 4.90663V18.62C2.00265 18.9789 2.07594 19.3338 2.21573 19.6645C2.35551 19.9951 2.55905 20.2949 2.81473 20.5469C3.0704 20.7988 3.3732 20.998 3.70583 21.1329C4.03846 21.2678 4.39441 21.3359 4.75336 21.3333H20C20.1768 21.3333 20.3464 21.2631 20.4714 21.138C20.5965 21.013 20.6667 20.8434 20.6667 20.6666V16.6666H21.3334C21.5102 16.6666 21.6797 16.5964 21.8048 16.4714C21.9298 16.3463 22 16.1768 22 16V10.6666C22 10.4898 21.9298 10.3202 21.8048 10.1952C21.6797 10.0702 21.5102 9.99996 21.3334 9.99996ZM19.3334 20H4.75336C4.38256 20.0035 4.02535 19.8606 3.75942 19.6021C3.4935 19.3437 3.34038 18.9907 3.33336 18.62V6.58663C3.54976 6.64934 3.77494 6.67636 4.00003 6.66663H19.3334V9.99996H14.6667C13.7826 9.99996 12.9348 10.3511 12.3097 10.9763C11.6846 11.6014 11.3334 12.4492 11.3334 13.3333C11.3334 14.2173 11.6846 15.0652 12.3097 15.6903C12.9348 16.3154 13.7826 16.6666 14.6667 16.6666H19.3334V20ZM20.6667 15.3333H14.6667C14.1363 15.3333 13.6276 15.1226 13.2525 14.7475C12.8774 14.3724 12.6667 13.8637 12.6667 13.3333C12.6667 12.8029 12.8774 12.2942 13.2525 11.9191C13.6276 11.544 14.1363 11.3333 14.6667 11.3333H20.6667V15.3333Z" fill="black"/>
<path d="M15.34 14.3334C15.8923 14.3334 16.34 13.8857 16.34 13.3334C16.34 12.7811 15.8923 12.3334 15.34 12.3334C14.7877 12.3334 14.34 12.7811 14.34 13.3334C14.34 13.8857 14.7877 14.3334 15.34 14.3334Z" fill="black"/>
</svg>
